<svg xmlns="http://www.w3.org/2000/svg" width="1200" height="800" viewBox="0 0 1200 800">
  <defs>
    <linearGradient id="bg" x1="0" y1="0" x2="1" y2="1">
      <stop offset="0" stop-color="#0a120e"/>
      <stop offset="1" stop-color="#080b09"/>
    </linearGradient>
    <linearGradient id="accent" x1="0" y1="0" x2="1" y2="0">
      <stop offset="0" stop-color="#00e676"/>
      <stop offset="1" stop-color="#a8ff35"/>
    </linearGradient>
  </defs>
  <rect width="1200" height="800" fill="url(#bg)"/>
  <g transform="translate(180,180)">
    <rect x="0" y="0" rx="20" ry="20" width="840" height="360" fill="#0d1310" stroke="url(#accent)" stroke-width="3"/>
    <g stroke="#00e676" stroke-opacity="0.6" fill="none" stroke-width="14">
      <rect x="60" y="60" width="80" height="240" rx="12"/>
      <rect x="170" y="60" width="80" height="240" rx="12"/>
      <rect x="280" y="60" width="80" height="240" rx="12"/>
      <rect x="390" y="60" width="80" height="240" rx="12"/>
      <rect x="500" y="60" width="80" height="240" rx="12"/>
      <rect x="610" y="60" width="80" height="240" rx="12"/>
      <rect x="720" y="60" width="80" height="240" rx="12"/>
    </g>
    <circle cx="830" cy="320" r="10" fill="url(#accent)"/>
  </g>
  <text x="60" y="740" fill="#b2c7b8" font-family="Arial,Helvetica,sans-serif" font-size="22" letter-spacing="1">
    Radiator Placeholder • 1200×800 • Neon theme
  </text>
</svg>
